<svg width="362" height="278" viewBox="0 0 362 278" fill="none" xmlns="http://www.w3.org/2000/svg">
<path d="M135.467 0.282523C128.736 1.46911 123.476 5.73517 118.498 14.126C117.452 15.9059 112.277 25.9919 107.016 36.5016L97.4289 55.6283L66.7437 55.713C36.2282 55.7978 36.0585 55.7978 33.287 56.4193C24.6329 58.397 18.411 61.7872 12.274 67.9179C6.16526 74.0203 2.68667 80.4335 0.791826 89.0787L0.141357 91.9604V166.546C0.141357 237.317 0.169639 241.272 0.65042 243.815C2.34729 252.658 6.81573 260.766 13.3487 266.84C19.1464 272.208 26.4429 275.853 34.3617 277.322C37.105 277.83 41.7148 277.859 181 277.859C320.285 277.859 324.895 277.83 327.638 277.322C336.207 275.74 343.532 271.869 349.698 265.71C355.806 259.608 359.709 252.234 361.349 243.759C361.83 241.272 361.859 237.119 361.859 166.546V91.9604L361.208 89.0787C359.313 80.4618 355.806 74.0203 349.726 67.9179C343.589 61.7872 337.367 58.397 328.713 56.4193C325.941 55.7978 325.772 55.7978 295.256 55.713L264.571 55.6283L254.984 36.5016C249.723 25.9919 244.718 16.1602 243.841 14.6911C239.316 6.92175 235.017 2.88171 229.163 0.904068L226.957 0.141263L181.848 0.113011C157.046 0.0847589 136.174 0.169515 135.467 0.282523ZM44.2884 83.6543C46.7489 84.1063 49.2659 85.4341 51.3021 87.2988C57.0432 92.6667 57.1564 101.425 51.585 107.019C48.4457 110.155 43.9773 111.68 39.82 111.03C32.9193 109.985 27.9701 104.278 27.9701 97.3848C27.9418 94.7008 28.2812 93.2035 29.4125 90.9715C30.9962 87.8638 33.8243 85.4059 37.1898 84.2476C39.8765 83.287 41.5734 83.1457 44.2884 83.6543ZM191.323 84.0498C215.786 87.1575 237.053 100.408 250.742 120.975C259.82 134.593 264.43 150.075 264.43 166.828C264.43 177.055 262.874 185.983 259.452 195.448C251.59 217.117 234.14 235.226 212.703 243.956C202.267 248.194 192.51 250.087 181 250.087C165.36 250.087 151.474 246.301 138.069 238.334C130.49 233.842 122.288 226.779 116.434 219.716C106.394 207.652 99.8893 192.283 97.9945 176.123C97.4289 171.377 97.4571 162.251 97.9945 157.505C100.229 138.378 108.572 121.173 122.175 107.64C136.485 93.4012 155.236 84.9821 175.909 83.513C178.907 83.3152 187.957 83.626 191.323 84.0498Z" fill="#8D8D8D"/>
<path d="M176.192 125.326C171.724 125.863 166.35 127.53 162.193 129.592C147.062 137.192 137.899 153.522 139.398 170.162C141.123 189.232 154.557 204.064 173.505 207.822C177.041 208.528 184.959 208.528 188.494 207.822C201.702 205.195 212.449 197.143 218.331 185.418C221.753 178.553 223.252 170.812 222.573 163.438C220.905 144.905 208.235 130.383 190.05 126.117C187.646 125.524 186.147 125.383 182.131 125.298C179.416 125.241 176.729 125.27 176.192 125.326Z" fill="#8D8D8D"/>
</svg>
