<svg width="591" height="216" viewBox="0 0 591 216" fill="none" xmlns="http://www.w3.org/2000/svg">
<path d="M0 149.46L34.08 81.99L0 27.52V149.46Z" fill="#2F2B9D"/>
<path d="M15.47 216L100 138.25L45.96 161.54L15.47 216Z" fill="#504CCD"/>
<path d="M82.01 0L0.709961 157.3L53.62 130.48L99.38 75.13L82.01 0Z" fill="#504CCD"/>
<path d="M53.62 130.48L0.709961 157.3L45.96 161.54L100 138.25L53.62 130.48Z" fill="#2F2B9D"/>
<path d="M183.15 57.9C196.85 57.9 206.95 60.9 213.45 66.9C220.05 72.8 223.35 81.05 223.35 91.65C223.35 96.45 222.65 101.05 221.25 105.45C219.85 109.75 217.5 113.6 214.2 117C211 120.4 206.75 123.1 201.45 125.1C196.25 127.1 189.8 128.1 182.1 128.1H173.1V165H147.6V57.9H183.15ZM182.25 78.75H173.1V107.25H179.85C183.35 107.25 186.4 106.75 189 105.75C191.7 104.75 193.8 103.15 195.3 100.95C196.8 98.75 197.55 95.9 197.55 92.4C197.55 88 196.3 84.65 193.8 82.35C191.3 79.95 187.45 78.75 182.25 78.75ZM288.132 81.15C289.432 81.15 290.882 81.25 292.482 81.45C294.082 81.55 295.332 81.7 296.232 81.9L294.132 105.6C293.232 105.4 292.082 105.25 290.682 105.15C289.282 104.95 287.732 104.85 286.032 104.85C283.632 104.85 281.232 105.15 278.832 105.75C276.432 106.25 274.232 107.2 272.232 108.6C270.232 109.9 268.632 111.8 267.432 114.3C266.232 116.7 265.632 119.85 265.632 123.75V165H240.282V82.65H259.332L263.232 96.15H264.282C265.882 93.35 267.882 90.85 270.282 88.65C272.682 86.35 275.382 84.55 278.382 83.25C281.482 81.85 284.732 81.15 288.132 81.15ZM383.143 123.6C383.143 130.5 382.193 136.6 380.293 141.9C378.493 147.2 375.793 151.7 372.193 155.4C368.693 159.1 364.443 161.9 359.443 163.8C354.543 165.6 348.893 166.5 342.493 166.5C336.693 166.5 331.293 165.6 326.293 163.8C321.393 161.9 317.143 159.15 313.543 155.55C310.043 151.85 307.293 147.35 305.293 142.05C303.293 136.65 302.293 130.5 302.293 123.6C302.293 114.5 303.893 106.8 307.093 100.5C310.393 94.2 315.093 89.4 321.193 86.1C327.293 82.8 334.543 81.15 342.943 81.15C350.843 81.15 357.793 82.8 363.793 86.1C369.793 89.4 374.493 94.2 377.893 100.5C381.393 106.8 383.143 114.5 383.143 123.6ZM327.943 123.6C327.943 128.7 328.443 133 329.443 136.5C330.443 140 332.043 142.65 334.243 144.45C336.443 146.15 339.293 147 342.793 147C346.393 147 349.243 146.15 351.343 144.45C353.443 142.65 354.993 140 355.993 136.5C356.993 133 357.493 128.7 357.493 123.6C357.493 118.5 356.993 114.25 355.993 110.85C354.993 107.45 353.393 104.9 351.193 103.2C349.093 101.5 346.243 100.65 342.643 100.65C337.543 100.65 333.793 102.6 331.393 106.5C329.093 110.3 327.943 116 327.943 123.6ZM448.386 101.55H429.786V165H404.586V101.55H392.886V89.25L404.886 82.8V78.9C404.886 71.8 405.936 66.2 408.036 62.1C410.136 57.9 413.336 54.9 417.636 53.1C421.936 51.2 427.186 50.25 433.386 50.25C437.786 50.25 441.736 50.6 445.236 51.3C448.736 52 451.986 52.85 454.986 53.85L448.986 71.25C447.486 70.85 445.786 70.45 443.886 70.05C441.986 69.65 439.886 69.45 437.586 69.45C434.886 69.45 432.886 70.3 431.586 72C430.386 73.6 429.786 75.9 429.786 78.9V82.65H448.386V101.55ZM485.736 82.65V165H460.536V82.65H485.736ZM473.286 49.95C476.886 49.95 480.036 50.75 482.736 52.35C485.436 53.95 486.786 57.05 486.786 61.65C486.786 66.15 485.436 69.25 482.736 70.95C480.036 72.55 476.886 73.35 473.286 73.35C469.486 73.35 466.236 72.55 463.536 70.95C460.936 69.25 459.636 66.15 459.636 61.65C459.636 57.05 460.936 53.95 463.536 52.35C466.236 50.75 469.486 49.95 473.286 49.95ZM532.82 165H507.47V51H532.82V165ZM579.841 165H554.491V51H579.841V165Z" fill="#504CCD"/>
</svg>
